<mxfile host="app.diagrams.net" agent="Mozilla/5.0 (X11; Linux x86_64; rv:128.0) Gecko/20100101 Firefox/128.0" version="25.0.3">
  <diagram name="Page-1" id="HHO7tMF4Vck_DR756JE1">
    <mxGraphModel dx="819" dy="1038" grid="1" gridSize="10" guides="1" tooltips="1" connect="1" arrows="1" fold="1" page="1" pageScale="1" pageWidth="827" pageHeight="1169" math="0" shadow="0">
      <root>
        <mxCell id="0" />
        <mxCell id="1" parent="0" />
        <mxCell id="OHbJW_l4e2RDl2kT1JHy-32" value="" style="rounded=1;whiteSpace=wrap;html=1;fillColor=#d5e8d4;strokeColor=#82b366;" vertex="1" parent="1">
          <mxGeometry x="130" y="160" width="20" height="90" as="geometry" />
        </mxCell>
        <mxCell id="OHbJW_l4e2RDl2kT1JHy-1" value="" style="ellipse;whiteSpace=wrap;html=1;aspect=fixed;strokeWidth=2;" vertex="1" parent="1">
          <mxGeometry x="400.03" y="480" width="80" height="80" as="geometry" />
        </mxCell>
        <mxCell id="OHbJW_l4e2RDl2kT1JHy-3" style="edgeStyle=orthogonalEdgeStyle;rounded=0;orthogonalLoop=1;jettySize=auto;html=1;entryX=0;entryY=0.5;entryDx=0;entryDy=0;curved=1;exitX=1;exitY=0.5;exitDx=0;exitDy=0;fillColor=#ffe6cc;strokeColor=#d79b00;" edge="1" parent="1" source="OHbJW_l4e2RDl2kT1JHy-1" target="OHbJW_l4e2RDl2kT1JHy-1">
          <mxGeometry relative="1" as="geometry">
            <Array as="points">
              <mxPoint x="520.03" y="520" />
              <mxPoint x="520.03" y="420" />
              <mxPoint x="360.03" y="420" />
              <mxPoint x="360.03" y="520" />
            </Array>
          </mxGeometry>
        </mxCell>
        <mxCell id="OHbJW_l4e2RDl2kT1JHy-5" value="" style="endArrow=none;html=1;rounded=0;entryX=0.5;entryY=0;entryDx=0;entryDy=0;exitX=0.5;exitY=1;exitDx=0;exitDy=0;" edge="1" parent="1" source="OHbJW_l4e2RDl2kT1JHy-1" target="OHbJW_l4e2RDl2kT1JHy-1">
          <mxGeometry width="50" height="50" relative="1" as="geometry">
            <mxPoint x="270.03" y="950" as="sourcePoint" />
            <mxPoint x="320.03" y="900" as="targetPoint" />
          </mxGeometry>
        </mxCell>
        <mxCell id="OHbJW_l4e2RDl2kT1JHy-7" value="&lt;div align=&quot;center&quot;&gt;&lt;font style=&quot;font-size: 24px;&quot;&gt;Î£&lt;/font&gt;&lt;/div&gt;" style="text;html=1;align=center;verticalAlign=middle;whiteSpace=wrap;rounded=0;" vertex="1" parent="1">
          <mxGeometry x="400.03" y="480" width="40" height="80" as="geometry" />
        </mxCell>
        <mxCell id="OHbJW_l4e2RDl2kT1JHy-9" value="" style="curved=1;endArrow=none;html=1;rounded=0;endFill=0;" edge="1" parent="1">
          <mxGeometry width="50" height="50" relative="1" as="geometry">
            <mxPoint x="447.03" y="540" as="sourcePoint" />
            <mxPoint x="467.03" y="500" as="targetPoint" />
            <Array as="points">
              <mxPoint x="457.03" y="540" />
              <mxPoint x="457.03" y="500" />
            </Array>
          </mxGeometry>
        </mxCell>
        <mxCell id="OHbJW_l4e2RDl2kT1JHy-13" value="20" style="rounded=0;whiteSpace=wrap;html=1;fillColor=#d5e8d4;strokeColor=#82b366;" vertex="1" parent="1">
          <mxGeometry x="160" y="450" width="40" height="40" as="geometry" />
        </mxCell>
        <mxCell id="OHbJW_l4e2RDl2kT1JHy-14" value="50" style="rounded=0;whiteSpace=wrap;html=1;fillColor=#d5e8d4;strokeColor=#82b366;" vertex="1" parent="1">
          <mxGeometry x="160" y="490" width="40" height="40" as="geometry" />
        </mxCell>
        <mxCell id="OHbJW_l4e2RDl2kT1JHy-15" value="100" style="rounded=0;whiteSpace=wrap;html=1;fillColor=#d5e8d4;strokeColor=#82b366;" vertex="1" parent="1">
          <mxGeometry x="160" y="530" width="40" height="40" as="geometry" />
        </mxCell>
        <mxCell id="OHbJW_l4e2RDl2kT1JHy-16" value="" style="endArrow=none;html=1;rounded=0;" edge="1" parent="1">
          <mxGeometry width="50" height="50" relative="1" as="geometry">
            <mxPoint x="40" y="230" as="sourcePoint" />
            <mxPoint x="60" y="240" as="targetPoint" />
          </mxGeometry>
        </mxCell>
        <mxCell id="OHbJW_l4e2RDl2kT1JHy-17" value="" style="endArrow=none;html=1;rounded=0;" edge="1" parent="1">
          <mxGeometry width="50" height="50" relative="1" as="geometry">
            <mxPoint x="60" y="240" as="sourcePoint" />
            <mxPoint x="80" y="230" as="targetPoint" />
          </mxGeometry>
        </mxCell>
        <mxCell id="OHbJW_l4e2RDl2kT1JHy-18" value="" style="endArrow=none;html=1;rounded=0;" edge="1" parent="1">
          <mxGeometry width="50" height="50" relative="1" as="geometry">
            <mxPoint x="80" y="230" as="sourcePoint" />
            <mxPoint x="100" y="210" as="targetPoint" />
          </mxGeometry>
        </mxCell>
        <mxCell id="OHbJW_l4e2RDl2kT1JHy-22" value="" style="endArrow=none;html=1;rounded=0;" edge="1" parent="1">
          <mxGeometry width="50" height="50" relative="1" as="geometry">
            <mxPoint x="160" y="210" as="sourcePoint" />
            <mxPoint x="180" y="220" as="targetPoint" />
          </mxGeometry>
        </mxCell>
        <mxCell id="OHbJW_l4e2RDl2kT1JHy-23" value="" style="endArrow=none;html=1;rounded=0;" edge="1" parent="1">
          <mxGeometry width="50" height="50" relative="1" as="geometry">
            <mxPoint x="180" y="220" as="sourcePoint" />
            <mxPoint x="200" y="240" as="targetPoint" />
          </mxGeometry>
        </mxCell>
        <mxCell id="OHbJW_l4e2RDl2kT1JHy-24" value="" style="endArrow=none;html=1;rounded=0;" edge="1" parent="1">
          <mxGeometry width="50" height="50" relative="1" as="geometry">
            <mxPoint x="200" y="240" as="sourcePoint" />
            <mxPoint x="220" y="230" as="targetPoint" />
          </mxGeometry>
        </mxCell>
        <mxCell id="OHbJW_l4e2RDl2kT1JHy-25" value="" style="endArrow=none;html=1;rounded=0;" edge="1" parent="1">
          <mxGeometry width="50" height="50" relative="1" as="geometry">
            <mxPoint x="220" y="230" as="sourcePoint" />
            <mxPoint x="240" y="200" as="targetPoint" />
          </mxGeometry>
        </mxCell>
        <mxCell id="OHbJW_l4e2RDl2kT1JHy-26" value="" style="endArrow=none;html=1;rounded=0;" edge="1" parent="1">
          <mxGeometry width="50" height="50" relative="1" as="geometry">
            <mxPoint x="240" y="200" as="sourcePoint" />
            <mxPoint x="260" y="190" as="targetPoint" />
          </mxGeometry>
        </mxCell>
        <mxCell id="OHbJW_l4e2RDl2kT1JHy-30" value="" style="endArrow=classic;html=1;rounded=0;fillColor=#f5f5f5;strokeColor=#666666;" edge="1" parent="1">
          <mxGeometry width="50" height="50" relative="1" as="geometry">
            <mxPoint x="20" y="260" as="sourcePoint" />
            <mxPoint x="280" y="260" as="targetPoint" />
          </mxGeometry>
        </mxCell>
        <mxCell id="OHbJW_l4e2RDl2kT1JHy-35" value="&lt;font style=&quot;font-size: 7px;&quot;&gt;Temperature&lt;/font&gt;" style="text;html=1;align=center;verticalAlign=middle;whiteSpace=wrap;rounded=0;" vertex="1" parent="1">
          <mxGeometry y="206" width="60" height="30" as="geometry" />
        </mxCell>
        <mxCell id="OHbJW_l4e2RDl2kT1JHy-36" value="" style="endArrow=classic;html=1;rounded=0;fillColor=#f5f5f5;strokeColor=#666666;" edge="1" parent="1">
          <mxGeometry width="50" height="50" relative="1" as="geometry">
            <mxPoint x="140" y="260" as="sourcePoint" />
            <mxPoint x="140" y="120" as="targetPoint" />
          </mxGeometry>
        </mxCell>
        <mxCell id="OHbJW_l4e2RDl2kT1JHy-19" value="" style="endArrow=none;html=1;rounded=0;" edge="1" parent="1">
          <mxGeometry width="50" height="50" relative="1" as="geometry">
            <mxPoint x="100" y="210" as="sourcePoint" />
            <mxPoint x="120" y="200" as="targetPoint" />
          </mxGeometry>
        </mxCell>
        <mxCell id="OHbJW_l4e2RDl2kT1JHy-20" value="" style="endArrow=oval;html=1;rounded=0;endFill=1;" edge="1" parent="1">
          <mxGeometry width="50" height="50" relative="1" as="geometry">
            <mxPoint x="120" y="200" as="sourcePoint" />
            <mxPoint x="140" y="180" as="targetPoint" />
          </mxGeometry>
        </mxCell>
        <mxCell id="OHbJW_l4e2RDl2kT1JHy-21" value="" style="endArrow=none;html=1;rounded=0;" edge="1" parent="1">
          <mxGeometry width="50" height="50" relative="1" as="geometry">
            <mxPoint x="140" y="180" as="sourcePoint" />
            <mxPoint x="160" y="210" as="targetPoint" />
          </mxGeometry>
        </mxCell>
        <mxCell id="OHbJW_l4e2RDl2kT1JHy-34" style="edgeStyle=orthogonalEdgeStyle;rounded=0;orthogonalLoop=1;jettySize=auto;html=1;entryX=0;entryY=0.5;entryDx=0;entryDy=0;fillColor=#d5e8d4;strokeColor=#82b366;endArrow=classic;endFill=1;" edge="1" parent="1" source="OHbJW_l4e2RDl2kT1JHy-32" target="OHbJW_l4e2RDl2kT1JHy-14">
          <mxGeometry relative="1" as="geometry">
            <Array as="points">
              <mxPoint x="140" y="510" />
            </Array>
          </mxGeometry>
        </mxCell>
        <mxCell id="OHbJW_l4e2RDl2kT1JHy-37" value="&lt;font style=&quot;font-size: 7px;&quot;&gt;Time&lt;/font&gt;" style="text;html=1;align=center;verticalAlign=middle;whiteSpace=wrap;rounded=0;" vertex="1" parent="1">
          <mxGeometry x="250" y="230" width="60" height="30" as="geometry" />
        </mxCell>
      </root>
    </mxGraphModel>
  </diagram>
</mxfile>
